inDegrees=no
num_controls=7
num_derivatives=13
num_iterations=94
num_multipliers=7
num_parameters=0
num_slacks=7
num_states=26
objective=0.444918
objective_accelerations=0.058680
objective_balance=0.003719
objective_effort=0.023597
objective_height=0.353430
objective_ligament=0.005492
solver_duration=1383.395350
status=Solve_Succeeded
success=true
DataType=double
version=3
OpenSimVersion=4.5
endheader
time	/jointset/ground_pelvis/pelvis_tilt/value	/jointset/ground_pelvis/pelvis_tx/value	/jointset/ground_pelvis/pelvis_ty/value	/jointset/hip_l/hip_flexion_l/value	/jointset/hip_l/hip_adduction_l/value	/jointset/hip_l/hip_rotation_l/value	/jointset/back/lumbar_extension/value	/jointset/patellofemoral_l/patellar_flexion_l/value	/jointset/knee_l/knee_flexion_l/value	/jointset/knee_l/knee_adduction_l/value	/jointset/knee_l/knee_rotation_l/value	/jointset/ankle_l/ankle_angle_l/value	/jointset/subtalar_l/subtalar_angle_l/value	/jointset/ground_pelvis/pelvis_tilt/speed	/jointset/ground_pelvis/pelvis_tx/speed	/jointset/ground_pelvis/pelvis_ty/speed	/jointset/hip_l/hip_flexion_l/speed	/jointset/hip_l/hip_adduction_l/speed	/jointset/hip_l/hip_rotation_l/speed	/jointset/back/lumbar_extension/speed	/jointset/patellofemoral_l/patellar_flexion_l/speed	/jointset/knee_l/knee_flexion_l/speed	/jointset/knee_l/knee_adduction_l/speed	/jointset/knee_l/knee_rotation_l/speed	/jointset/ankle_l/ankle_angle_l/speed	/jointset/subtalar_l/subtalar_angle_l/speed	/forceset/tau_hip_flexion_l	/forceset/tau_hip_adduction_l	/forceset/tau_hip_rotation_l	/forceset/tau_knee_flexion_l	/forceset/tau_ankle_angle_l	/forceset/tau_subtalar_angle_l	/forceset/tau_lumbar_extension	lambda_cid13_p0	lambda_cid13_p1	lambda_cid13_p2	lambda_cid13_p3	lambda_cid13_p4	lambda_cid13_p5	lambda_cid14_p0	/jointset/ground_pelvis/pelvis_tilt/accel	/jointset/ground_pelvis/pelvis_tx/accel	/jointset/ground_pelvis/pelvis_ty/accel	/jointset/hip_l/hip_flexion_l/accel	/jointset/hip_l/hip_adduction_l/accel	/jointset/hip_l/hip_rotation_l/accel	/jointset/back/lumbar_extension/accel	/jointset/patellofemoral_l/patellar_flexion_l/accel	/jointset/knee_l/knee_flexion_l/accel	/jointset/knee_l/knee_adduction_l/accel	/jointset/knee_l/knee_rotation_l/accel	/jointset/ankle_l/ankle_angle_l/accel	/jointset/subtalar_l/subtalar_angle_l/accel	gamma_cid13_p0	gamma_cid13_p1	gamma_cid13_p2	gamma_cid13_p3	gamma_cid13_p4	gamma_cid13_p5	gamma_cid14_p0
1	-0.5634724389938652	-0.08694720173514732	0.5651307367662062	1.875261272230222	-0.4661464313599832	0.01662545592210631	-0.2617697103050235	1.399696235406059	1.39969623540609	-0.07757296780169119	-0.1745242900862568	0.2116585743933991	-0.01345466957684729	-0.01763912466178921	0.0119032851104469	0.003197373861669885	-0.003807359650492857	-0.00270803290192841	0.003427784962241521	0.0002103315700908009	0.002001428900333683	0.002001428900333549	-0.005333269573605711	-0.0002388542546419177	0.02339947083066258	0.01010552191326198	-0.3432710056778964	0.007841767498610897	0.0004993181190242707	-0.3011216281729244	0.03827494871009334	0.03404693584927431	0.2909735607686439	-27.74402268564106	-10.69432114546872	2.243451420617618	8.324564167019702	-644.9386613195994	-49.72744570396901	-1.111578298241149	1.554733567390892	0.2283336784288551	2.009446211076265	-6.94238687862612	-0.09637550198341914	-2.33644545762227	-0.01646839514958049	-5.341936115687868	-5.341936115688084	-0.636462106113537	-0.03237392647907208	-0.6379483245961557	-0.4570497482655589	6.331077683454716e-09	2.197830946460023e-08	-1.463547243769945e-08	2.549732610207412e-09	-1.15004352813876e-09	2.440420599185396e-08	3.365154077430501e-09
1.01	-0.5635720443444935	-0.08681682744813038	0.5652630297931973	1.874877423589944	-0.466177203857612	0.0165418679557569	-0.2617674385349264	1.399449250602575	1.399449250602584	-0.07765535085370451	-0.1745267983471285	0.2118608061030332	-0.01337494256908194	-0.002281680596535746	0.01417213194976641	0.02325657389036096	-0.07294916529140741	-0.003434899119344908	-0.02013487307586022	0.0002410893799533977	-0.05139723400336623	-0.05139723400336443	-0.01113849090622133	-0.0002468919407403484	0.0170375621338055	0.005848702668835807	-0.3431583882771093	0.00799845740505703	0.0004838348073553092	-0.30092980865521	0.03803795406262097	0.03404795038758892	0.2908798838472623	-27.80593032111518	-10.68662080507523	2.245306214987854	8.297155246905673	-644.7652342758698	-49.72230200599878	-1.116138635628845	1.526288348215686	0.2262447094853691	2.003456005337438	-6.89809837020625	-0.05910765288654872	-2.364605289452697	0.0124079084923706	-5.338656260462797	-5.338656260462434	-0.5518275533948427	0.01737477482155865	-0.6367076075194948	-0.4086796968760722	-1.830365162268364e-09	1.304622205342847e-08	2.559910129163492e-08	2.868314811547839e-09	-1.113168326435484e-08	7.653198148356932e-08	-8.768502340221958e-09
1.02	-0.5635180675500454	-0.0866637477881598	0.5655957746417898	1.873802552700581	-0.466214898111668	0.01622296754651614	-0.2617649471788421	1.398668314193503	1.398668314193491	-0.07779564120035602	-0.1745289082919689	0.2119991396326406	-0.01333752009062985	0.01307730435364309	0.01644435970117175	0.04328773818193039	-0.1420118094676061	-0.004092384187393015	-0.04363470361590641	0.0002542487673444698	-0.1047888922171358	-0.104788892217134	-0.01691472850120782	-0.0001591910469691777	0.01061983482538793	0.001644616050611173	-0.3430457708763101	0.008155147311502624	0.0004683514956691945	-0.3007379891374974	0.03780095941514591	0.03404896492590149	0.2907862069258938	-27.87349764463345	-10.67767685181897	2.246674242430345	8.292697150451362	-644.6702906690749	-49.69482868822423	-1.130040644204446	1.555041744375976	0.2290098608460127	2.003839063651934	-6.926554585682958	-0.08249927210970154	-2.32387995801112	-0.01998807964393595	-5.340535177701812	-5.340535177702407	-0.6306653585876932	-0.01322621050507784	-0.6491120469082653	-0.4465032230252079	-9.499825274730246e-09	5.38675984329032e-09	6.694641360539799e-08	3.689774549238308e-09	-2.08126746825105e-08	1.278001303880833e-07	-2.048402957688417e-08
1.03	-0.5633104726245211	-0.08648789458427504	0.5661286107288628	1.872037635012063	-0.4662586655720121	0.01566957778390285	-0.2617623937081604	1.397353592397291	1.39735359239724	-0.07799349330655436	-0.1745294717430747	0.2120729612247715	-0.01334170829772957	0.02844308099750145	0.01873015944690882	0.06326679719400656	-0.2109392548861283	-0.004633052679114548	-0.06701262561574539	0.000256289862271396	-0.1581449794063208	-0.1581449794063117	-0.02264424285002241	8.343604578591867e-05	0.004129827136456401	-0.002455456467249734	-0.3426233427939093	0.008365379591708915	0.0004238986189515426	-0.3004255964645948	0.0376613992821739	0.03412746315331112	0.2904830578977343	-27.88914918756705	-10.71996707442661	2.265911283399867	8.203320710838881	-644.2746515514616	-49.74571992271676	-1.153492598143574	1.527552151579303	0.2289476954026532	1.99303085740912	-6.870972620944237	-0.03565174971934051	-2.340174538858633	0.01027687788966015	-5.331565836572371	-5.331565836570829	-0.5423887100991052	0.04857537224105263	-0.6511428804930237	-0.3877515537063892	-1.716426515522007e-08	-2.259716395408702e-09	1.083050803945124e-07	4.516365690360924e-09	-3.049059826068595e-08	1.790595075927279e-07	-3.219529018925056e-08
